<?xml version="1.0" standalone="no"?>
<!DOCTYPE svg PUBLIC "-//W3C//DTD SVG 20010904//EN"
 "http://www.w3.org/TR/2001/REC-SVG-20010904/DTD/svg10.dtd">
<svg version="1.0" xmlns="http://www.w3.org/2000/svg"
 width="460.000000pt" height="460.000000pt" viewBox="0 0 460.000000 460.000000"
 preserveAspectRatio="xMidYMid meet">
<metadata>
Created by potrace 1.14, written by Peter Selinger 2001-2017
</metadata>
<g transform="translate(0.000000,460.000000) scale(0.100000,-0.100000)"
fill="#000000" stroke="none">
<path d="M5 4198 c4 -341 12 -723 27 -1373 l3 -120 43 -3 42 -3 0 298 c-1 164
-3 308 -7 321 -3 12 -12 22 -19 22 -18 0 -8 48 15 70 13 13 12 15 -12 18 -35
4 -35 20 1 25 l27 4 -27 2 c-36 1 -36 18 0 24 l27 4 -27 2 c-16 0 -28 6 -28
12 0 7 9 9 23 6 22 -6 22 -6 2 10 -20 15 -20 15 1 10 21 -4 21 -4 6 27 -8 17
-19 39 -24 48 -4 10 -8 65 -8 123 l0 105 25 0 c22 0 25 4 25 35 0 33 -2 35
-32 36 -18 1 -41 1 -51 0 -9 -1 -17 3 -17 9 0 7 18 9 53 6 39 -4 44 -3 22 3
-22 6 -25 9 -10 11 16 1 17 3 4 8 -12 5 -16 19 -15 52 5 152 6 160 21 160 11
0 15 -11 15 -41 0 -22 4 -38 9 -35 5 3 11 -176 15 -407 3 -226 9 -538 12 -692
l6 -280 50 3 49 4 -2 196 c-2 229 -11 323 -35 372 -16 30 -18 68 -20 265 -2
127 -6 245 -9 263 -6 30 -4 32 25 32 29 0 30 2 30 45 0 43 -1 45 -30 45 l-30
0 4 73 c2 39 4 91 5 114 1 35 5 42 24 46 20 4 20 4 -3 6 -20 1 -26 7 -28 26
-1 21 3 25 23 25 28 0 28 4 25 -127 -1 -58 2 -93 9 -93 5 0 12 15 14 33 2 17
4 -68 5 -191 1 -123 4 -226 6 -231 3 -4 6 -174 7 -377 1 -203 4 -404 7 -446
l4 -78 39 0 39 0 0 263 c0 173 -4 257 -10 247 -6 -9 -10 -10 -10 -3 0 6 5 15
10 18 6 3 10 14 10 23 -1 16 -2 16 -14 -1 -12 -15 -14 -9 -20 50 -8 89 -9 280
-1 293 3 5 1 10 -4 10 -7 0 -11 41 -11 115 0 108 1 115 20 115 17 0 20 7 20
45 0 38 -3 45 -20 45 -18 0 -20 7 -20 61 0 37 4 58 10 54 5 -3 8 0 5 7 -3 7
-6 34 -8 61 -3 41 -1 47 16 47 16 0 19 -6 15 -45 -2 -25 0 -45 5 -45 4 0 4 -6
0 -14 -10 -17 -4 -128 6 -122 8 5 6 -83 -3 -91 -3 -4 -5 -31 -4 -62 1 -54 2
-54 5 -11 5 54 18 73 19 27 9 -514 25 -1971 21 -1980 -3 -9 10 -11 50 -9 l54
4 -7 701 c-5 494 -10 704 -18 709 -8 5 -7 8 2 8 16 0 16 62 0 78 -7 7 -20 12
-30 12 -13 0 -17 7 -15 30 l2 30 18 -25 c29 -39 38 -30 35 30 -3 53 -4 55 -30
55 -39 0 -35 18 5 23 l32 4 -32 1 c-18 1 -33 6 -33 11 0 6 15 12 33 14 l32 4
-32 1 c-37 2 -45 21 -10 23 15 1 17 3 5 6 -19 5 -26 50 -33 205 l-5 107 29 -2
28 -2 2 -80 c3 -102 11 -111 12 -14 1 68 2 70 9 29 4 -25 8 -173 10 -330 1
-157 6 -578 9 -937 l6 -652 43 27 43 27 -3 771 c-3 728 -4 771 -21 766 -9 -2
-17 0 -17 6 0 6 8 13 18 15 10 3 6 5 -10 6 -36 1 -36 18 0 24 l27 4 -27 2
c-16 0 -28 6 -28 11 0 6 12 11 28 11 21 1 22 3 6 6 -18 3 -22 14 -28 65 -10
103 -8 170 7 162 10 -6 10 -4 0 7 -7 7 -13 28 -13 47 0 30 3 34 23 30 21 -4
22 -2 19 64 -2 40 -8 67 -14 65 -6 -1 -13 4 -16 12 -3 9 0 11 8 6 10 -6 12 -4
7 9 -4 10 -7 22 -7 27 0 5 -6 8 -12 7 -7 -2 -13 3 -12 10 1 6 2 32 3 57 0 25
5 45 11 45 5 0 7 -13 4 -29 -5 -22 0 -37 16 -58 24 -29 24 -27 0 20 -11 22
-11 33 -3 47 10 14 8 19 -10 28 l-22 11 22 0 c12 1 24 5 27 9 3 5 -8 6 -25 4
-25 -4 -29 -1 -29 21 0 34 38 44 50 14 6 -15 8 -5 4 33 -3 30 -1 69 5 85 7 22
10 -10 11 -125 0 -85 2 -202 4 -260 2 -58 6 -384 10 -725 4 -341 9 -694 11
-785 2 -91 4 -243 4 -337 l1 -173 24 0 c14 0 37 5 52 10 l26 10 -2 378 c-1
207 2 409 7 447 l10 70 1 -62 c2 -60 3 -63 27 -63 14 0 25 -5 25 -11 0 -7 -10
-9 -26 -6 l-25 4 2 -367 c1 -203 -2 -373 -5 -378 -4 -7 4 -8 24 -2 17 5 34 9
38 9 8 1 4 1346 -4 1521 -4 63 -10 120 -15 126 -5 6 -12 61 -15 123 -5 96 -3
111 10 111 12 0 16 11 16 45 0 33 -4 45 -15 45 -12 0 -15 19 -15 114 0 101 2
115 18 119 16 4 16 5 0 6 -23 1 -26 61 -3 61 12 0 15 18 15 105 0 63 4 105 10
105 6 0 10 -17 11 -37 0 -30 2 -34 9 -18 6 15 9 4 12 -40 3 -44 5 -31 7 50 2
75 6 101 11 80 7 -29 8 -29 10 -5 1 14 2 32 1 41 -1 8 3 26 9 40 7 17 9 -16 6
-123 -3 -86 -1 -150 5 -153 5 -4 8 -18 8 -33 l-1 -27 -8 30 c-7 26 -8 25 -7
-16 0 -25 -3 -52 -8 -60 -8 -12 -6 -12 8 0 15 12 17 12 11 -3 -3 -9 -15 -21
-25 -27 -11 -5 -19 -21 -20 -37 -1 -17 -3 -20 -6 -9 -6 24 -33 22 -33 -3 0
-15 7 -20 26 -20 20 0 25 -4 20 -16 -3 -9 -2 -12 5 -9 5 4 7 16 4 28 -5 20 -4
20 8 -2 10 -17 16 -20 19 -10 13 37 28 -811 28 -1630 l0 -324 24 26 c13 14 49
40 80 57 45 25 56 37 56 57 0 30 24 26 28 -5 2 -13 8 -19 17 -16 7 3 21 -6 30
-20 19 -29 35 -26 35 6 0 11 17 57 39 102 21 44 44 98 50 119 8 24 17 35 24
30 7 -4 0 7 -15 25 -31 38 -43 84 -35 149 12 109 93 100 245 -25 18 -15 48
-35 67 -45 31 -17 34 -23 40 -80 4 -34 5 -81 3 -105 l-3 -42 -61 29 c-34 16
-65 34 -68 40 -4 6 -19 11 -34 11 -24 0 -19 -6 35 -40 34 -22 80 -47 102 -56
28 -11 53 -34 89 -82 49 -65 108 -130 168 -183 16 -15 41 -41 56 -59 l28 -32
0 36 c0 20 5 36 10 36 6 0 10 -21 10 -47 0 -51 36 -125 70 -143 19 -10 20 -7
20 123 0 107 3 137 15 147 13 11 15 -5 15 -134 l0 -146 28 -12 c15 -6 62 -13
105 -16 l77 -5 0 442 0 441 -49 0 -49 0 5 -342 c5 -344 -1 -528 -18 -528 -4 0
-7 196 -6 438 l3 437 -48 -3 c-38 -3 -48 -8 -48 -22 0 -10 -7 -20 -15 -24 -18
-6 -19 1 -5 40 10 28 12 29 65 26 l55 -4 0 445 c0 287 -4 448 -10 452 -5 3
-10 30 -11 58 0 38 -3 47 -9 32 -7 -18 -9 -16 -15 13 -4 17 -11 32 -15 32 -15
0 -20 33 -8 48 11 13 14 11 19 -9 7 -23 7 -23 8 4 1 15 6 27 11 27 6 0 10 7
10 15 0 8 5 15 10 15 6 0 10 19 9 43 0 23 -3 36 -6 30 -3 -8 -23 -13 -49 -13
l-44 0 0 -507 c-1 -446 -2 -505 -15 -483 -12 20 -14 89 -15 363 l0 337 -45 0
-45 0 0 -291 c0 -191 -3 -288 -10 -284 -6 4 -10 112 -10 291 l0 284 -45 0 -45
0 0 115 0 115 46 0 c38 0 45 3 40 16 -3 9 -6 22 -6 30 0 10 -13 14 -45 14
l-46 0 1 -377 c1 -445 2 -403 -10 -403 -6 0 -10 84 -10 233 0 127 -4 237 -8
243 -4 6 -24 13 -45 16 l-37 4 0 -213 c0 -183 -2 -213 -15 -213 -13 0 -15 30
-15 210 l0 210 -40 0 -40 0 -1 58 c0 31 -2 75 -4 97 -6 64 1 75 46 75 37 0 39
1 39 33 l0 32 -50 -3 -50 -4 0 -328 c0 -184 -4 -331 -9 -334 -5 -4 -12 76 -16
183 l-8 190 -31 3 c-29 3 -31 6 -34 47 -2 28 1 47 10 52 7 5 8 9 2 9 -6 0 -11
25 -12 60 l-1 60 33 0 c30 0 34 4 38 30 4 29 4 30 -39 30 l-43 0 0 -331 c0
-260 -3 -330 -12 -327 -10 4 -14 52 -16 186 l-2 181 -38 3 c-30 2 -38 7 -40
26 -2 13 2 29 8 37 8 10 8 15 0 20 -8 5 -10 29 -7 74 3 36 6 67 6 69 1 1 17 2
36 2 32 0 35 2 35 30 0 29 -2 30 -45 30 -57 0 -59 19 -2 22 l42 1 -40 5 c-32
3 -36 6 -20 12 18 8 18 9 2 9 -28 1 -20 72 9 86 37 18 54 37 54 57 0 20 0 20
-17 1 -10 -10 -13 -12 -8 -4 8 11 7 13 -4 7 -8 -5 -17 -3 -22 5 -6 9 -7 3 -3
-17 4 -22 1 -34 -12 -45 -16 -13 -17 -12 -10 6 5 11 8 38 8 61 1 37 3 40 24
36 16 -3 21 -9 17 -20 -4 -10 -2 -13 6 -8 7 5 9 16 5 28 -4 13 -2 18 4 14 17
-10 20 14 14 115 -3 66 -1 98 7 103 8 5 11 -34 12 -146 0 -84 2 -169 3 -188 1
-19 3 -53 4 -74 3 -58 12 -38 16 35 4 82 7 92 31 106 27 17 50 17 38 1 -5 -7
-6 -31 -2 -53 l7 -40 0 40 c0 22 4 51 10 65 9 20 11 3 10 -85 0 -60 3 -110 8
-112 5 -2 9 31 9 72 0 57 4 78 15 85 10 7 11 10 3 10 -8 0 -13 13 -13 33 0 33
1 34 39 34 35 0 40 -3 43 -29 3 -15 2 -28 -1 -28 -9 0 0 -173 10 -192 5 -9 9
-41 10 -70 0 -47 2 -50 11 -25 8 22 16 27 44 27 31 0 34 3 34 30 0 29 -2 30
-43 30 l-42 0 7 88 c3 48 7 106 7 130 l1 42 40 0 c22 0 40 3 40 8 0 4 -20 6
-45 4 -44 -4 -45 -4 -45 27 0 29 2 31 39 31 22 0 41 -5 44 -12 2 -7 3 28 1 77
-3 88 -3 89 7 30 5 -33 13 -139 18 -235 l8 -175 1 123 2 122 45 0 c44 0 45 1
45 33 l0 34 55 2 c50 2 55 0 55 -18 0 -13 -7 -21 -16 -21 -9 0 -25 -11 -36
-26 -11 -14 -23 -23 -26 -19 -3 3 3 12 14 20 18 13 18 14 -4 8 -21 -5 -22 -9
-22 -129 l0 -124 45 0 c25 0 45 -4 45 -10 0 -5 -20 -10 -45 -10 -44 0 -45 -1
-45 -32 l0 -33 48 3 47 4 -3 81 c-1 47 2 94 9 110 10 23 10 31 0 37 -10 5 -9
9 3 13 14 6 16 -5 16 -78 l0 -84 35 1 36 1 -2 134 c-1 87 -5 131 -12 124 -16
-16 -58 9 -55 33 3 18 12 20 107 22 l103 3 -4 -40 c-3 -32 -1 -38 12 -34 13 4
13 3 -1 -7 -10 -9 -13 -21 -9 -38 4 -14 5 -63 2 -110 -5 -91 3 -108 11 -25 3
28 9 65 12 82 5 21 3 38 -5 48 -7 8 -8 15 -2 15 11 0 23 38 13 44 -4 3 -8 18
-9 35 -2 31 -2 31 48 31 l50 0 0 -139 c0 -88 4 -142 11 -146 7 -5 10 26 8 97
-1 56 -1 122 -1 146 l1 42 46 0 45 0 0 -170 0 -170 -45 0 c-43 0 -45 -1 -45
-30 0 -29 2 -30 45 -30 l45 0 0 -110 0 -110 -45 0 -45 0 0 -455 0 -455 40 0
c24 0 42 5 44 13 6 18 16 764 16 1197 0 231 4 369 9 361 5 -8 7 -37 4 -63 l-6
-48 44 2 c44 1 44 1 7 5 -34 4 -38 7 -38 34 0 28 2 29 44 29 l45 0 0 -157 c1
-86 4 -159 6 -162 5 -4 10 351 6 391 -1 9 3 19 10 23 8 6 10 -15 8 -76 -4 -74
-2 -84 14 -85 12 -1 13 -1 2 3 -20 6 -20 59 1 67 9 3 26 6 40 6 l24 0 -3 -169
c-1 -93 1 -167 6 -164 4 2 7 -1 7 -6 0 -6 -20 -11 -45 -11 -43 0 -45 -1 -45
-30 0 -28 2 -30 40 -30 l40 0 0 -110 0 -110 -40 0 -40 0 0 -452 0 -453 39 0
c22 0 42 2 45 5 3 3 6 296 7 650 1 354 4 651 8 660 4 10 8 3 12 -20 l6 -35 2
38 c1 27 -3 37 -14 37 -11 0 -15 11 -15 38 0 73 7 82 60 82 l48 0 7 -107 c10
-169 13 -154 15 82 1 121 6 229 11 240 6 14 8 -5 6 -57 l-2 -78 42 0 c41 0 43
-1 43 -30 0 -16 -4 -30 -10 -30 -5 0 -10 -5 -10 -11 0 -5 4 -7 10 -4 6 4 10
-39 10 -121 0 -70 2 -125 5 -122 10 9 14 77 14 246 1 121 4 172 12 172 8 0 10
-21 7 -67 -3 -38 -3 -61 -1 -52 2 9 18 19 35 23 45 9 48 8 48 -13 0 -14 -8
-21 -27 -24 l-28 -4 28 -2 c40 -2 33 -19 -10 -24 l-38 -4 38 -1 37 -2 2 -132
2 -133 6 125 5 125 10 -110 c5 -60 10 -155 9 -210 0 -55 2 -79 4 -52 3 46 4
47 38 47 l35 0 -3 -102 -3 -103 -31 -3 -31 -3 -6 -466 c-11 -775 -10 -880 11
-892 15 -9 15 -10 1 -11 -17 0 -17 6 -23 -360 -1 -92 -6 -86 60 -82 22 2 22 2
28 424 4 233 8 470 10 528 2 58 5 321 7 585 1 264 5 509 8 545 6 59 7 62 14
30 4 -19 6 -66 4 -105 -3 -38 -2 -51 0 -27 4 39 6 42 34 42 l29 0 0 -99 c0
-103 -11 -131 -45 -117 -13 5 -15 -27 -15 -257 0 -144 -3 -553 -7 -909 l-6
-648 47 0 46 0 0 508 c-1 725 7 1322 19 1357 7 20 8 -279 4 -917 -5 -876 -5
-948 11 -948 10 0 16 8 16 23 0 18 -2 19 -10 7 -7 -10 -10 14 -10 77 0 51 4
95 10 98 6 3 9 18 9 33 l-1 27 -8 -30 c-7 -26 -8 -24 -7 17 0 26 4 45 8 43 4
-3 6 6 5 19 0 13 -4 22 -8 19 -5 -2 -8 5 -8 16 0 12 6 21 13 21 7 0 8 3 2 8
-12 8 -17 75 -6 68 4 -3 9 43 10 102 3 161 9 240 20 260 6 12 7 30 1 48 -4 16
-9 23 -9 16 -1 -7 -6 -10 -11 -7 -6 4 -8 16 -4 28 4 12 8 63 10 112 1 50 5
158 8 240 14 365 17 445 21 530 3 50 7 200 10 335 3 134 8 246 11 249 2 2 4
-24 4 -58 0 -42 4 -60 11 -56 6 4 8 14 5 22 -3 8 -1 11 4 8 6 -3 11 -59 12
-123 l2 -117 6 135 c5 123 6 130 14 80 8 -48 10 -52 17 -30 5 14 6 -497 3
-1135 -4 -859 -9 -1162 -17 -1167 -7 -4 -263 -8 -569 -8 -365 0 -558 -3 -558
-10 0 -6 167 -11 478 -12 262 -1 510 -3 551 -4 79 -1 126 7 126 22 0 5 3 14 6
19 3 6 3 60 -1 120 -7 119 1 1284 10 1550 0 11 1 65 1 120 0 134 8 248 20 259
12 13 12 39 -1 31 -12 -7 -13 39 -4 137 4 37 11 65 15 62 5 -3 10 -38 11 -77
0 -40 4 29 9 153 4 124 10 291 13 373 l6 147 -672 -2 c-439 -2 -673 -6 -674
-13 -4 -26 -17 -55 -26 -55 -5 0 -6 -4 -3 -10 3 -5 1 -10 -4 -10 -6 0 -11 5
-11 11 0 6 -8 3 -17 -7 -16 -16 -18 -14 -28 32 -12 54 -24 42 -26 -24 0 -20
-4 -46 -9 -57 -7 -16 -9 -12 -9 18 -1 21 -5 36 -10 33 -5 -4 -7 3 -4 13 3 11
-3 31 -14 45 l-18 25 -992 1 c-956 0 -993 -1 -993 -18 0 -10 -3 -22 -6 -25
-10 -10 -44 12 -44 28 0 10 -10 15 -30 15 l-31 0 6 -402z m2082 360 c-3 -7 -5
-2 -5 12 0 14 2 19 5 13 2 -7 2 -19 0 -25z m-10 -40 c-3 -8 -6 -5 -6 6 -1 11
2 17 5 13 3 -3 4 -12 1 -19z m700 -130 c-3 -7 -5 -2 -5 12 0 14 2 19 5 13 2
-7 2 -19 0 -25z m-120 -30 c-2 -13 -4 -5 -4 17 -1 22 1 32 4 23 2 -10 2 -28 0
-40z m-603 -83 c4 -49 9 -111 12 -136 4 -35 2 -48 -9 -52 -12 -5 -15 17 -15
140 -1 80 0 144 3 142 2 -2 6 -44 9 -94z m-115 0 c1 -36 -1 -46 -9 -35 -5 8
-9 40 -9 70 0 68 15 39 18 -35z m841 44 c0 -18 -4 -28 -10 -24 -5 3 -10 20
-10 36 0 18 4 28 10 24 6 -3 10 -20 10 -36z m-1693 -36 c-2 -16 -4 -5 -4 22 0
28 2 40 4 28 2 -13 2 -35 0 -50z m252 -33 c5 -3 10 -230 12 -504 3 -388 1
-500 -8 -503 -10 -4 -13 38 -15 174 -3 176 -3 178 -25 181 -14 2 -23 -2 -23
-10 0 -10 -3 -9 -10 2 -5 8 -10 41 -10 73 0 45 3 57 16 57 14 0 14 1 0 16 -9
9 -16 32 -16 55 0 38 1 39 35 39 35 0 35 0 34 43 0 23 -3 36 -6 30 -7 -19 -83
-17 -83 2 0 8 4 15 9 15 5 0 12 30 15 68 7 98 9 100 43 79 8 -5 11 0 10 13 -1
17 -6 20 -29 15 -26 -6 -28 -4 -28 24 0 29 2 31 36 31 l36 0 -5 83 c-2 45 -2
69 0 52 3 -16 8 -32 12 -35z m-1098 -17 c-9 -15 -11 -10 -9 22 2 52 12 69 16
28 2 -18 -2 -41 -7 -50z m995 -510 c4 -343 3 -543 -3 -546 -6 -4 -11 17 -12
50 -1 31 -4 59 -6 63 -3 5 -6 120 -7 257 0 136 -4 232 -8 213 -7 -34 -47 -140
-56 -150 -3 -2 -4 41 -2 97 1 56 6 99 10 97 5 -3 6 -9 3 -14 -3 -6 8 -2 24 8
26 14 31 23 31 57 l0 40 -51 0 -50 0 2 -411 c1 -282 -2 -417 -10 -430 -9 -16
-16 263 -14 549 0 12 -4 14 -11 7 -5 -5 -16 -10 -23 -10 -10 0 -13 27 -13 115
0 115 0 115 24 115 13 0 26 -5 28 -10 2 -6 3 15 3 45 0 54 -1 55 -28 55 l-28
0 2 89 c2 59 7 88 14 84 5 -3 4 0 -2 8 -20 21 -16 49 7 49 16 0 20 -7 20 -35
0 -26 -4 -35 -17 -36 -17 -1 -17 -2 0 -6 9 -2 17 -8 17 -13 0 -5 -8 -7 -17 -4
-15 5 -15 4 1 -6 14 -10 20 -10 27 1 4 7 4 16 0 19 -5 3 -5 14 0 25 7 19 8 19
10 -2 1 -13 3 -27 4 -33 1 -5 3 -41 4 -78 1 -57 4 -68 19 -68 15 0 17 10 14
79 -1 48 1 76 7 73 5 -4 13 -1 17 5 4 7 3 9 -4 5 -6 -3 -14 -1 -18 5 -3 6 -1
15 6 19 9 5 9 9 1 14 -16 10 -14 36 3 36 8 0 22 -20 32 -45 9 -25 19 -43 22
-41 2 3 -3 24 -12 46 -9 23 -12 39 -7 36 17 -11 34 24 28 60 -6 33 0 70 9 61
3 -2 7 -247 10 -544z m2094 537 c0 -5 -8 -10 -17 -10 -15 0 -16 2 -3 10 19 12
20 12 20 0z m-558 -45 c-3 -22 -8 -33 -13 -28 -10 10 0 75 10 68 4 -2 5 -20 3
-40z m96 -10 c-1 -34 -2 -35 -45 -35 -43 0 -43 0 -43 35 0 35 0 35 45 35 44 0
44 0 43 -35z m462 25 c0 -5 -16 -10 -35 -10 -19 0 -35 5 -35 10 0 6 16 10 35
10 19 0 35 -4 35 -10z m-2619 -17 c8 -49 6 -53 -26 -53 -31 0 -40 14 -29 48 4
13 53 17 55 5z m369 -23 c0 -23 -5 -30 -19 -30 -11 0 -21 9 -24 22 -8 27 -1
38 24 38 14 0 19 -7 19 -30z m130 0 c0 -29 -2 -30 -42 -28 -24 1 -38 3 -32 5
6 2 9 15 6 28 -4 23 -1 25 32 25 33 0 36 -2 36 -30z m110 0 c0 -27 -3 -30 -30
-30 -27 0 -30 3 -30 30 0 27 3 30 30 30 27 0 30 -3 30 -30z m130 4 c0 -25 -23
-53 -45 -54 -5 0 -3 5 5 10 12 8 9 10 -12 10 -24 0 -28 4 -28 30 0 28 2 30 40
30 37 0 40 -2 40 -26z m110 -24 c0 -47 -5 -55 -32 -51 -5 0 -8 -3 -8 -9 0 -5
-4 -10 -10 -10 -14 0 -13 33 2 48 9 9 15 9 27 -1 14 -10 14 -10 4 4 -7 9 -9
19 -5 24 4 4 -3 3 -15 -4 -31 -16 -33 -15 -33 19 0 28 3 30 35 30 l35 0 0 -50z
m130 20 c0 -29 -2 -30 -42 -30 -41 0 -43 2 -45 30 -2 29 -1 30 42 30 43 0 45
-1 45 -30z m230 0 c0 -28 -2 -30 -40 -30 -38 0 -40 2 -40 30 0 28 2 30 40 30
38 0 40 -2 40 -30z m-1810 -5 c0 -18 -5 -25 -20 -25 -15 0 -20 7 -20 25 0 18
5 25 20 25 15 0 20 -7 20 -25z m240 9 c0 -8 5 -12 10 -9 6 3 10 0 10 -7 0 -9
-13 -15 -35 -16 -31 -2 -35 0 -35 23 0 20 5 25 25 25 16 0 25 -6 25 -16z m120
-9 c0 -20 -5 -25 -25 -25 -20 0 -25 5 -25 25 0 20 5 25 25 25 20 0 25 -5 25
-25z m2740 4 c0 -5 -16 -9 -35 -9 -41 0 -47 17 -7 22 31 4 42 1 42 -13z m118
-124 l3 -145 -35 0 -35 0 -3 109 c-4 131 -2 141 23 141 10 0 19 5 19 11 0 6
-9 8 -20 4 -14 -5 -20 -2 -20 9 0 11 10 16 33 16 l32 0 3 -145z m-2219 70 l0
-20 -9 20 c-5 11 -9 27 -9 35 -1 13 0 13 9 0 5 -8 9 -24 9 -35z m2101 -95 c0
-85 4 -130 11 -130 5 0 8 -4 5 -8 -8 -13 -63 -13 -74 1 -6 7 -11 57 -12 112
-2 167 -5 155 35 155 l35 0 0 -130z m-2745 58 c0 -29 1 -57 4 -63 13 -25 8
-35 -20 -35 -21 0 -29 5 -29 18 0 26 11 34 26 21 10 -8 12 -7 9 8 -2 10 -6 25
-10 34 -3 10 -1 20 5 24 8 5 6 13 -6 26 -16 18 -16 19 3 19 17 0 19 -6 18 -52z
m245 40 c0 -7 3 -45 6 -83 6 -67 5 -72 -17 -83 -23 -12 -23 -12 -1 -6 18 4 22
1 22 -20 0 -22 -5 -26 -29 -26 l-29 0 -1 115 -1 115 25 0 c14 0 25 -6 25 -12z
m2537 -115 c-3 -10 -5 -4 -5 12 0 17 2 24 5 18 2 -7 2 -21 0 -30z m-2880 -65
c-2 -13 -4 -5 -4 17 -1 22 1 32 4 23 2 -10 2 -28 0 -40z m113 17 c0 -8 6 -15
13 -16 10 0 10 -2 0 -6 -7 -2 -13 -11 -13 -19 0 -9 -11 -14 -30 -14 -28 0 -30
3 -30 35 0 32 2 35 30 35 20 0 30 -5 30 -15z m86 -40 c14 -13 13 -15 -4 -15
-10 0 -19 7 -19 15 0 8 2 15 4 15 3 0 11 -7 19 -15z m1141 -17 c-3 -7 -5 -2
-5 12 0 14 2 19 5 13 2 -7 2 -19 0 -25z m-1537 -2 c0 -2 -7 -6 -15 -10 -8 -3
-15 -1 -15 4 0 6 7 10 15 10 8 0 15 -2 15 -4z m53 -13 c-7 -2 -21 -2 -30 0
-10 3 -4 5 12 5 17 0 24 -2 18 -5z m3090 0 c-7 -2 -21 -2 -30 0 -10 3 -4 5 12
5 17 0 24 -2 18 -5z m-2813 -53 c0 -5 -2 -10 -4 -10 -3 0 -8 5 -11 10 -3 6 -1
10 4 10 6 0 11 -4 11 -10z m220 -98 c0 -74 -2 -80 -30 -107 l-30 -29 1 107 1
107 29 0 29 0 0 -78z m455 69 c10 -17 -12 -21 -25 -6 -10 12 -10 15 3 15 9 0
18 -4 22 -9z m-198 -73 c-3 -8 -6 -5 -6 6 -1 11 2 17 5 13 3 -3 4 -12 1 -19z
m2393 2 c0 -5 -4 -10 -10 -10 -5 0 -10 5 -10 10 0 6 5 10 10 10 6 0 10 -4 10
-10z m-2176 -109 c-4 -24 -12 -41 -20 -41 -10 0 -10 9 3 46 18 54 26 52 17 -5z
m-449 -303 c-4 -183 -9 -335 -11 -337 -2 -2 -4 91 -4 207 l0 210 -31 7 c-34 8
-37 37 -4 43 33 6 42 22 12 22 -15 0 -27 5 -27 11 0 7 12 10 30 7 22 -3 29 -1
28 11 -3 42 3 151 8 151 3 0 3 -150 -1 -332z m-25 278 c0 -38 -3 -45 -19 -43
-16 1 -18 4 -8 16 10 12 9 14 -5 8 -10 -3 -18 -3 -18 2 0 9 39 61 46 61 2 0 4
-20 4 -44z m-506 -391 c3 -8 1 -15 -4 -15 -6 0 -10 7 -10 15 0 8 2 15 4 15 2
0 6 -7 10 -15z m1140 -10 c-4 -8 -10 -15 -15 -15 -5 0 -9 7 -9 15 0 8 7 15 15
15 9 0 12 -6 9 -15z m-118 -92 c-10 -10 -19 5 -10 18 6 11 8 11 12 0 2 -7 1
-15 -2 -18z m-239 -75 c-3 -8 -6 -5 -6 6 -1 11 2 17 5 13 3 -3 4 -12 1 -19z
m-10 -65 c-3 -10 -5 -4 -5 12 0 17 2 24 5 18 2 -7 2 -21 0 -30z m0 -55 c-3 -8
-6 -5 -6 6 -1 11 2 17 5 13 3 -3 4 -12 1 -19z m-250 -60 c-2 -13 -4 -5 -4 17
-1 22 1 32 4 23 2 -10 2 -28 0 -40z m1160 -48 c2 -32 0 -38 -13 -33 -10 4 -14
13 -10 27 3 11 6 27 6 34 0 6 3 12 8 12 4 0 8 -18 9 -40z m32 -12 c2 24 19 11
23 -18 5 -35 -11 -53 -19 -21 -3 11 -9 18 -14 15 -5 -3 -8 12 -8 33 1 38 1 38
9 8 4 -16 8 -24 9 -17z m-1192 -45 c-3 -10 -5 -4 -5 12 0 17 2 24 5 18 2 -7 2
-21 0 -30z m1025 -25 c3 -9 16 -10 52 -1 60 13 86 7 87 -21 0 -15 2 -17 7 -6
7 16 32 26 32 13 -1 -19 -29 -43 -49 -43 -12 0 -20 -4 -16 -9 3 -5 -7 -12 -22
-14 -22 -4 -20 -4 7 -4 20 1 41 -3 48 -7 8 -5 12 -1 12 11 0 10 7 28 15 40 18
26 42 21 55 -11 7 -17 9 -12 11 24 2 31 4 21 8 -35 4 -44 4 -82 0 -85 -3 -3
-9 -16 -12 -30 -4 -14 -16 -36 -26 -50 -16 -20 -21 -22 -35 -11 -9 7 -17 23
-17 35 -2 20 -2 20 -6 -1 -6 -30 -25 -29 -138 2 -49 14 -106 25 -125 25 -66 0
-99 47 -70 101 10 17 21 19 134 16 68 -1 119 1 113 5 -7 4 -40 8 -74 8 -97 0
-122 19 -60 45 40 18 64 19 69 3z m1458 -37 c0 -14 -29 -22 -56 -15 -38 10
-28 24 16 24 22 0 40 -4 40 -9z m105 -1 c-3 -5 -20 -10 -36 -10 -18 0 -28 4
-24 10 3 6 20 10 36 10 18 0 28 -4 24 -10z m-2845 -10 c0 -5 -18 -10 -40 -10
-22 0 -40 5 -40 10 0 6 18 10 40 10 22 0 40 -4 40 -10z m120 0 c0 -5 -16 -10
-36 -10 -21 0 -33 4 -29 10 3 6 19 10 36 10 16 0 29 -4 29 -10z m130 0 c0 -5
-18 -10 -39 -10 -22 0 -43 5 -46 10 -4 6 12 10 39 10 25 0 46 -4 46 -10z
m1357 -72 c16 -20 26 -88 13 -88 -6 0 -8 -11 -5 -27 l6 -28 -25 30 c-14 17
-26 41 -27 55 0 23 -1 23 -9 5 -13 -30 -13 6 0 39 10 28 31 34 47 14z m-1130
-255 c-3 -10 -5 -4 -5 12 0 17 2 24 5 18 2 -7 2 -21 0 -30z m2350 5 c-3 -8 -6
-5 -6 6 -1 11 2 17 5 13 3 -3 4 -12 1 -19z m-2356 -135 c-8 -14 -9 -5 -6 32 6
78 8 83 12 33 2 -26 0 -56 -6 -65z m2359 82 c0 -14 -2 -25 -4 -25 -2 0 -6 11
-8 25 -3 14 -1 25 3 25 5 0 9 -11 9 -25z"/>
<path d="M1295 4130 c4 -6 11 -8 16 -5 14 9 11 15 -7 15 -8 0 -12 -5 -9 -10z"/>
<path d="M1318 4033 c5 -10 7 -24 5 -30 -3 -7 0 -13 6 -13 12 0 13 6 5 38 -4
12 -10 22 -16 22 -5 0 -5 -7 0 -17z"/>
<path d="M1307 3953 c-11 -13 -16 -27 -13 -31 10 -9 38 24 34 41 -2 12 -7 9
-21 -10z"/>
<path d="M1280 3770 c-8 -5 -12 -12 -9 -15 4 -3 12 1 19 10 14 17 11 19 -10 5z"/>
<path d="M1279 3613 c-13 -16 -12 -17 4 -4 9 7 17 15 17 17 0 8 -8 3 -21 -13z"/>
<path d="M1180 3976 c0 -2 8 -10 18 -17 15 -13 16 -12 3 4 -13 16 -21 21 -21
13z"/>
<path d="M1930 2640 c0 -19 3 -21 12 -12 9 9 9 15 0 24 -9 9 -12 7 -12 -12z"/>
<path d="M1902 2585 c0 -16 2 -22 5 -12 2 9 2 23 0 30 -3 6 -5 -1 -5 -18z"/>
<path d="M1941 2521 c-10 -6 -10 -10 -1 -16 13 -8 24 -1 19 14 -3 6 -10 7 -18
2z"/>
<path d="M4520 4590 c0 -5 3 -9 8 -9 53 9 59 -35 8 -56 -19 -8 -38 -20 -41
-26 -4 -6 7 -3 25 6 39 20 46 15 31 -23 -9 -22 -35 -40 -103 -76 -50 -26 -102
-57 -115 -69 -23 -22 -31 -61 -13 -72 5 -3 8 -28 7 -56 -2 -42 -4 -47 -14 -32
-21 27 -15 4 6 -25 10 -15 21 -45 25 -67 7 -40 57 -151 95 -212 19 -30 25 -33
68 -33 81 0 93 7 91 49 l-1 36 -4 -32 c-4 -33 -4 -33 -62 -33 -54 0 -81 11
-81 34 0 14 94 56 128 57 19 1 21 3 9 6 -12 3 -16 10 -13 20 4 9 2 21 -2 27
-5 6 -12 79 -15 161 -6 127 -4 154 9 173 8 12 20 20 25 17 5 -4 9 7 9 23 0 23
-5 31 -25 36 -32 8 -32 22 1 30 24 6 25 8 10 19 -15 11 -16 16 -1 57 11 30 12
46 5 48 -8 3 -7 8 1 18 9 12 4 14 -30 14 -22 0 -41 -4 -41 -10z m19 -302 c0
-24 -2 -38 -5 -33 -2 6 -27 8 -55 6 -36 -2 -49 0 -45 8 4 6 14 11 22 11 8 0
17 7 21 16 5 14 35 32 56 33 4 1 7 -18 6 -41z m-13 -205 l4 -129 -35 -17 c-20
-9 -42 -17 -49 -17 -30 0 -112 209 -83 211 8 0 8 2 0 6 -18 7 -16 23 2 23 13
0 21 -32 16 -63 -1 -5 3 -6 9 -2 5 3 10 15 10 26 0 16 3 18 19 9 29 -15 61
-12 61 5 0 22 29 89 36 83 3 -3 7 -64 10 -135z"/>
<path d="M4380 4070 c0 -5 5 -10 11 -10 5 0 7 5 4 10 -3 6 -8 10 -11 10 -2 0
-4 -4 -4 -10z"/>
<path d="M4448 4053 c7 -3 16 -2 19 1 4 3 -2 6 -13 5 -11 0 -14 -3 -6 -6z"/>
<path d="M4392 4480 c-17 -12 -84 -111 -79 -116 9 -9 27 5 27 20 0 8 8 13 18
12 10 0 16 5 14 14 -3 12 -1 12 9 3 10 -10 16 -9 30 3 10 9 15 21 13 28 -6 15
13 32 41 39 11 2 1 4 -23 3 -23 0 -46 -3 -50 -6z m28 -10 c0 -5 -5 -10 -11
-10 -5 0 -7 5 -4 10 3 6 8 10 11 10 2 0 4 -4 4 -10z m0 -34 c0 -2 -8 -10 -17
-17 -16 -13 -17 -12 -4 4 13 16 21 21 21 13z"/>
<path d="M4293 4255 c0 -22 2 -30 4 -17 2 12 2 30 0 40 -3 9 -5 -1 -4 -23z"/>
<path d="M2708 4193 c7 -3 16 -2 19 1 4 3 -2 6 -13 5 -11 0 -14 -3 -6 -6z"/>
<path d="M2198 4183 c7 -3 16 -2 19 1 4 3 -2 6 -13 5 -11 0 -14 -3 -6 -6z"/>
<path d="M2161 4102 l1 -67 8 51 c4 29 10 56 14 62 3 5 -1 12 -9 16 -12 4 -15
-6 -14 -62z"/>
<path d="M2478 4163 c7 -3 16 -2 19 1 4 3 -2 6 -13 5 -11 0 -14 -3 -6 -6z"/>
<path d="M2908 4163 c7 -3 16 -2 19 1 4 3 -2 6 -13 5 -11 0 -14 -3 -6 -6z"/>
<path d="M2532 4115 c0 -16 2 -22 5 -12 2 9 2 23 0 30 -3 6 -5 -1 -5 -18z"/>
<path d="M1921 4084 c0 -11 3 -14 6 -6 3 7 2 16 -1 19 -3 4 -6 -2 -5 -13z"/>
<path d="M1802 4040 c0 -14 2 -19 5 -12 2 6 2 18 0 25 -3 6 -5 1 -5 -13z"/>
<path d="M2653 3990 c0 -41 2 -58 4 -37 2 20 2 54 0 75 -2 20 -4 3 -4 -38z"/>
<path d="M3013 3990 c0 -41 2 -58 4 -37 2 20 2 54 0 75 -2 20 -4 3 -4 -38z"/>
<path d="M1921 4034 c0 -11 3 -14 6 -6 3 7 2 16 -1 19 -3 4 -6 -2 -5 -13z"/>
<path d="M2532 4020 c0 -19 2 -27 5 -17 2 9 2 25 0 35 -3 9 -5 1 -5 -18z"/>
<path d="M1453 3995 c0 -27 2 -38 4 -22 2 15 2 37 0 50 -2 12 -4 0 -4 -28z"/>
<path d="M1921 3964 c0 -11 3 -14 6 -6 3 7 2 16 -1 19 -3 4 -6 -2 -5 -13z"/>
<path d="M1418 3943 c7 -3 16 -2 19 1 4 3 -2 6 -13 5 -11 0 -14 -3 -6 -6z"/>
<path d="M1911 3924 c0 -11 3 -14 6 -6 3 7 2 16 -1 19 -3 4 -6 -2 -5 -13z"/>
<path d="M2541 3873 l-1 -43 45 0 46 0 -3 -112 -3 -113 -42 3 -43 4 0 -822 0
-821 23 12 c29 16 37 24 13 15 -16 -5 -17 -4 -7 8 7 8 10 19 7 24 -6 10 13 30
27 30 5 0 12 4 15 8 4 4 -4 4 -18 1 -24 -6 -26 -4 -25 31 3 81 4 84 28 80 21
-3 22 -8 28 -113 3 -60 6 54 7 255 l2 365 -45 -3 c-37 -3 -45 -1 -45 12 0 14
8 16 45 12 l45 -6 0 595 0 595 -44 0 c-26 0 -46 5 -49 13 -3 6 -6 -7 -6 -30z"/>
<path d="M3063 3893 c-40 -4 -43 -6 -43 -34 0 -27 2 -29 40 -29 l40 0 0 -105
0 -105 -40 0 -40 0 -2 -312 c-4 -459 -3 -551 1 -575 3 -20 9 -23 47 -23 l44 0
0 595 c0 327 -1 594 -2 593 -2 -1 -22 -3 -45 -5z"/>
<path d="M2180 3860 c0 -29 1 -30 50 -30 49 0 50 1 50 30 0 29 -1 30 -50 30
-49 0 -50 -1 -50 -30z"/>
<path d="M2300 3860 c0 -29 1 -30 50 -30 49 0 50 1 50 30 0 29 -1 30 -50 30
-49 0 -50 -1 -50 -30z"/>
<path d="M2780 3861 c0 -28 3 -30 43 -33 41 -3 42 -4 48 -43 5 -32 6 -25 8 33
l1 72 -50 0 c-49 0 -50 -1 -50 -29z"/>
<path d="M2890 3860 c0 -29 2 -30 46 -30 l47 0 -6 -67 c-4 -38 -7 -85 -7 -105
0 -36 -1 -38 -34 -38 l-33 0 -7 -92 c-3 -50 -6 -255 -6 -455 l0 -364 48 3 47
3 3 588 4 587 -51 0 c-50 0 -51 -1 -51 -30z"/>
<path d="M3476 3784 c-3 -26 -5 -191 -4 -368 l2 -321 6 365 c3 201 5 366 4
368 -1 1 -4 -18 -8 -44z"/>
<path d="M1390 3809 c0 -5 9 -9 20 -9 11 0 20 2 20 4 0 2 -9 6 -20 9 -11 3
-20 1 -20 -4z"/>
<path d="M3593 3740 c0 -41 2 -58 4 -37 2 20 2 54 0 75 -2 20 -4 3 -4 -38z"/>
<path d="M863 3730 c0 -41 2 -58 4 -37 2 20 2 54 0 75 -2 20 -4 3 -4 -38z"/>
<path d="M1445 3791 c-3 -5 -2 -12 3 -15 5 -3 9 1 9 9 0 17 -3 19 -12 6z"/>
<path d="M810 3760 c0 -16 4 -30 8 -30 5 0 7 14 4 30 -2 17 -6 30 -8 30 -2 0
-4 -13 -4 -30z"/>
<path d="M1691 3704 c0 -11 3 -14 6 -6 3 7 2 16 -1 19 -3 4 -6 -2 -5 -13z"/>
<path d="M352 3665 c0 -16 2 -22 5 -12 2 9 2 23 0 30 -3 6 -5 -1 -5 -18z"/>
<path d="M2860 3656 c0 -36 -12 -46 -56 -46 l-24 0 0 -453 0 -452 45 3 45 4 0
489 c0 269 -2 489 -5 489 -3 0 -5 -15 -5 -34z"/>
<path d="M482 3625 c0 -16 2 -22 5 -12 2 9 2 23 0 30 -3 6 -5 -1 -5 -18z"/>
<path d="M3594 3465 c0 -104 2 -146 3 -92 2 54 2 139 0 190 -1 51 -3 7 -3 -98z"/>
<path d="M2233 3603 c-34 -3 -44 -9 -48 -26 -2 -12 -4 -213 -2 -447 l2 -425
48 -3 47 -3 0 455 c0 251 -1 455 -2 454 -2 -1 -22 -3 -45 -5z"/>
<path d="M2303 3156 l2 -448 48 -2 c43 -2 47 0 47 21 0 16 -6 23 -18 23 -10 0
-27 7 -38 15 -18 13 -16 14 21 16 22 1 32 3 22 6 -9 2 -15 9 -11 14 3 5 10 7
15 4 5 -4 9 151 9 398 l0 405 -50 -2 -50 -1 3 -449z"/>
<path d="M862 3580 c0 -14 2 -19 5 -12 2 6 2 18 0 25 -3 6 -5 1 -5 -13z"/>
<path d="M3591 3194 c0 -11 3 -14 6 -6 3 7 2 16 -1 19 -3 4 -6 -2 -5 -13z"/>
<path d="M4418 3193 c6 -2 18 -2 25 0 6 3 1 5 -13 5 -14 0 -19 -2 -12 -5z"/>
<path d="M4528 3193 c7 -3 16 -2 19 1 4 3 -2 6 -13 5 -11 0 -14 -3 -6 -6z"/>
<path d="M4370 3180 c-8 -5 -10 -10 -5 -10 6 0 17 5 25 10 8 5 11 10 5 10 -5
0 -17 -5 -25 -10z"/>
<path d="M4302 3140 c-23 -17 -42 -33 -42 -36 0 -4 56 34 85 58 23 20 -6 5
-43 -22z"/>
<path d="M4539 3114 c-17 -21 0 -49 32 -49 18 0 25 6 27 24 6 38 -34 55 -59
25z"/>
<path d="M4310 3107 c-74 -25 -110 -170 -71 -282 25 -71 26 -74 5 -49 -14 18
-15 18 -4 -4 7 -13 14 -21 17 -18 3 3 22 -8 41 -25 l36 -31 11 38 c6 22 21 58
33 81 35 68 51 120 39 132 -7 7 1 15 26 26 46 19 94 19 130 1 26 -15 27 -14
27 14 0 27 -2 29 -30 24 -23 -5 -35 -1 -58 22 -16 16 -31 35 -33 42 -5 15 -74
41 -109 41 -14 0 -41 -5 -60 -12z m-10 -113 c0 -19 -5 -24 -25 -24 -19 0 -25
5 -25 23 0 16 6 22 25 23 20 2 25 -3 25 -22z m66 -30 c-3 -9 -6 -20 -6 -25 0
-5 -11 -9 -25 -9 -20 0 -25 5 -25 25 0 21 5 25 31 25 24 0 30 -3 25 -16z m-66
-18 c0 -28 -12 -46 -31 -46 -14 0 -19 7 -19 30 0 25 4 30 25 30 15 0 25 -6 25
-14z m63 -39 c8 -21 -6 -36 -31 -34 -15 1 -21 6 -17 15 3 7 5 18 5 23 0 14 37
11 43 -4z m-3 -62 c0 -8 -6 -15 -12 -15 -9 0 -8 -4 2 -10 12 -8 9 -10 -12 -10
-24 0 -27 4 -26 25 2 19 8 25 25 25 14 0 23 -6 23 -15z"/>
<path d="M4220 3038 c-11 -24 -19 -52 -19 -63 0 -11 6 -2 13 20 7 22 18 50 25
63 6 12 9 22 6 22 -3 0 -15 -19 -25 -42z"/>
<path d="M3472 3050 c0 -14 2 -19 5 -12 2 6 2 18 0 25 -3 6 -5 1 -5 -13z"/>
<path d="M4498 2973 c7 -3 16 -2 19 1 4 3 -2 6 -13 5 -11 0 -14 -3 -6 -6z"/>
<path d="M4591 2950 c-7 -16 -5 -58 2 -51 5 5 7 19 4 32 -2 13 -5 22 -6 19z"/>
<path d="M2 2368 c-1 -380 1 -578 8 -578 11 0 11 393 1 865 -6 257 -7 225 -9
-287z"/>
<path d="M4192 2915 c0 -16 2 -22 5 -12 2 9 2 23 0 30 -3 6 -5 -1 -5 -18z"/>
<path d="M4201 2864 c0 -11 3 -14 6 -6 3 7 2 16 -1 19 -3 4 -6 -2 -5 -13z"/>
<path d="M874 2785 c0 -49 1 -71 3 -48 2 23 2 64 0 90 -2 26 -3 8 -3 -42z"/>
<path d="M4394 2818 c-3 -4 2 -5 10 -2 9 3 16 1 16 -5 0 -6 -9 -11 -20 -11
-10 0 -24 -9 -30 -19 -15 -28 -12 -33 8 -15 9 9 31 26 49 38 l32 23 -30 0
c-16 0 -32 -4 -35 -9z"/>
<path d="M4500 2820 c-11 -7 -5 -8 20 -4 43 8 51 14 19 14 -13 0 -31 -5 -39
-10z"/>
<path d="M4280 2715 c13 -14 26 -25 28 -25 3 0 -5 11 -18 25 -13 14 -26 25
-28 25 -3 0 5 -11 18 -25z"/>
<path d="M4428 2723 c7 -3 16 -2 19 1 4 3 -2 6 -13 5 -11 0 -14 -3 -6 -6z"/>
<path d="M38 2245 c2 -275 6 -441 12 -443 6 -2 8 -7 6 -11 -3 -4 16 -5 42 -2
26 3 99 6 162 6 l115 0 -3 300 c-3 215 -7 302 -15 307 -9 6 -9 8 1 8 10 0 12
30 11 135 l-3 135 -43 0 -43 0 0 -440 c0 -287 -3 -440 -10 -440 -6 0 -11 49
-12 123 0 67 -2 181 -3 252 -1 72 -3 214 -4 318 l-1 187 -51 0 -52 0 4 -432
c3 -318 1 -432 -7 -435 -7 -2 -12 2 -11 9 3 74 -4 117 -20 121 -17 4 -17 5 0
6 15 1 16 4 5 24 -19 34 -20 57 -2 74 13 13 15 53 14 287 -1 149 -4 289 -7
311 -5 39 -6 40 -47 40 l-41 0 3 -440z"/>
<path d="M873 2650 c0 -25 2 -35 4 -22 2 12 2 32 0 45 -2 12 -4 2 -4 -23z"/>
<path d="M2304 2425 c3 -143 5 -288 6 -323 0 -43 3 -61 11 -56 6 3 5 -4 -3
-17 -10 -16 -15 -59 -17 -126 l-3 -103 109 0 108 0 -5 82 c-5 76 -7 83 -25 80
-18 -4 -18 -3 3 15 22 18 22 19 25 361 l2 342 -47 0 -48 0 0 -435 c0 -283 -3
-435 -10 -435 -7 0 -10 151 -10 434 l0 434 -51 4 -51 3 6 -260z m164 -421 c-9
-9 -21 -13 -27 -9 -16 10 -3 25 22 25 20 0 20 -1 5 -16z m32 -84 c0 -5 -2 -10
-4 -10 -3 0 -8 5 -11 10 -3 6 -1 10 4 10 6 0 11 -4 11 -10z"/>
<path d="M2700 2683 l-45 -4 2 -202 c1 -111 2 -222 3 -247 0 -30 3 -40 9 -31
6 9 18 11 34 7 27 -6 27 -9 40 -146 2 -19 4 115 5 298 1 182 1 331 -1 330 -1
-1 -22 -3 -47 -5z"/>
<path d="M3058 2682 l-48 -3 0 -244 c0 -231 1 -245 19 -255 11 -5 29 -10 40
-10 29 0 26 -11 -8 -44 -28 -27 -29 -27 -24 -6 4 17 2 21 -8 18 -11 -4 -15
-39 -17 -171 l-2 -167 43 0 44 0 5 443 c3 243 5 442 4 442 -1 0 -22 -1 -48 -3z"/>
<path d="M4320 2685 c0 -8 61 -36 70 -33 5 2 -9 11 -30 20 -22 9 -40 15 -40
13z"/>
<path d="M1302 2668 c-19 -19 -14 -25 17 -20 16 2 39 -1 51 -8 29 -16 38 -5
15 20 -20 22 -64 27 -83 8z"/>
<path d="M2779 2603 c0 -43 -2 -141 -4 -218 -3 -91 0 -144 7 -152 7 -9 9 -50
5 -121 -4 -65 -3 -99 3 -87 8 18 9 17 7 -7 -1 -15 -4 -25 -7 -23 -3 2 -7 -19
-8 -46 -1 -27 -3 -52 -3 -57 -1 -4 -1 -26 0 -49 l1 -43 45 0 45 0 0 440 0 440
-45 0 -45 0 -1 -77z m38 -555 c-3 -8 -6 -5 -6 6 -1 11 2 17 5 13 3 -3 4 -12 1
-19z"/>
<path d="M2890 2240 l0 -440 40 0 c23 0 43 5 45 13 3 6 6 204 7 440 l3 427
-47 0 -48 0 0 -440z"/>
<path d="M4565 2665 c-16 -8 -23 -14 -14 -15 8 0 24 7 35 15 23 18 18 18 -21
0z"/>
<path d="M1375 2599 c-12 -6 -27 -19 -33 -30 -12 -19 -12 -19 16 -5 16 8 32
22 35 31 4 8 5 15 4 14 -1 0 -11 -5 -22 -10z"/>
<path d="M872 2560 c0 -19 2 -27 5 -17 2 9 2 25 0 35 -3 9 -5 1 -5 -18z"/>
<path d="M4251 2568 c-1 -20 -27 -25 -33 -7 -2 6 -10 -2 -17 -17 -10 -23 -10
-27 0 -16 7 6 21 12 32 12 30 0 16 -34 -18 -42 l-30 -7 32 3 c29 2 32 -1 36
-28 2 -20 4 -12 5 21 2 40 6 53 20 56 15 4 15 5 0 6 -9 0 -19 9 -21 19 -4 16
-5 16 -6 0z"/>
<path d="M4391 2566 c-1 -13 -6 -17 -21 -13 -11 3 -20 1 -20 -4 0 -10 60 -12
84 -3 9 3 16 11 16 17 0 7 -4 7 -12 -1 -17 -17 -36 -15 -41 6 -4 15 -5 15 -6
-2z"/>
<path d="M4532 2523 c-2 -55 -4 -62 -24 -65 -13 -2 1 -6 30 -9 l52 -4 -1 30
c-1 24 -3 25 -6 8 -3 -14 -12 -23 -23 -23 -16 0 -20 9 -23 63 l-3 62 -2 -62z"/>
<path d="M1395 2560 c-3 -5 -2 -10 4 -10 5 0 13 5 16 10 3 6 2 10 -4 10 -5 0
-13 -4 -16 -10z"/>
<path d="M4348 2523 c12 -2 22 -8 22 -12 0 -5 -10 -16 -22 -25 -16 -12 -18
-16 -5 -12 11 4 17 0 17 -12 0 -13 9 -17 40 -17 22 0 40 3 40 8 0 4 -16 7 -35
7 -26 0 -35 4 -35 16 0 13 8 15 35 12 19 -2 35 0 35 4 0 4 -13 8 -30 8 -46 0
-36 18 13 23 25 2 13 4 -28 4 -38 0 -60 -2 -47 -4z"/>
<path d="M845 2460 c3 -5 8 -10 11 -10 2 0 4 5 4 10 0 6 -5 10 -11 10 -5 0 -7
-4 -4 -10z"/>
<path d="M4093 2153 c15 -2 39 -2 55 0 15 2 2 4 -28 4 -30 0 -43 -2 -27 -4z"/>
<path d="M4203 2153 c15 -2 37 -2 50 0 12 2 0 4 -28 4 -27 0 -38 -2 -22 -4z"/>
<path d="M4378 2153 c7 -3 16 -2 19 1 4 3 -2 6 -13 5 -11 0 -14 -3 -6 -6z"/>
<path d="M2730 2007 c0 -9 1 -19 3 -21 7 -11 -38 -46 -54 -41 -14 5 -19 -1
-24 -27 -4 -19 -5 -52 -3 -73 l3 -40 45 0 45 0 3 99 c2 59 -1 103 -8 110 -7 7
-10 5 -10 -7z"/>
<path d="M1753 2000 c-24 -10 -54 -69 -52 -104 0 -17 3 -15 11 9 12 32 20 43
58 80 26 26 21 30 -17 15z"/>
<path d="M2661 1974 c0 -11 3 -14 6 -6 3 7 2 16 -1 19 -3 4 -6 -2 -5 -13z"/>
<path d="M2547 1963 c-4 -3 -7 -42 -7 -85 l0 -78 45 0 45 0 0 75 c0 73 -1 75
-25 75 -14 0 -25 5 -25 10 0 11 -23 14 -33 3z"/>
<path d="M3592 1850 c0 -19 2 -27 5 -17 2 9 2 25 0 35 -3 9 -5 1 -5 -18z"/>
<path d="M1691 1842 c0 -12 -8 -38 -15 -57 -18 -43 -12 -46 9 -4 9 17 14 42
12 57 -3 23 -4 24 -6 4z"/>
<path d="M1697 1769 c-4 -13 -7 -44 -7 -68 0 -42 1 -43 15 -25 15 20 18 67 6
98 -7 18 -8 18 -14 -5z"/>
<path d="M3450 1762 c0 -5 9 -17 20 -27 19 -17 19 -17 7 9 -12 25 -27 35 -27
18z"/>
<path d="M1216 1690 c1 -21 11 -54 23 -73 11 -19 21 -39 21 -44 0 -6 12 -46
26 -89 14 -44 27 -86 29 -94 4 -20 25 -107 36 -150 28 -115 39 -209 40 -352 0
-142 2 -158 18 -158 9 0 23 6 30 13 11 10 12 8 7 -9 -4 -12 -2 -40 3 -63 5
-23 5 -39 0 -35 -5 3 -9 -2 -9 -11 0 -11 5 -15 15 -12 8 4 17 1 21 -5 4 -7 3
-8 -4 -4 -7 4 -12 3 -12 -2 0 -16 44 -31 100 -34 53 -3 55 -2 60 27 7 38 -2
104 -16 128 -6 11 -26 22 -45 26 -43 9 -41 29 6 74 33 31 34 35 36 110 1 43 6
101 11 130 4 29 10 86 13 127 3 41 8 100 11 132 6 68 -8 83 -26 25 -7 -23 -23
-64 -37 -90 l-24 -48 -27 38 c-15 21 -35 54 -45 73 -10 19 -40 67 -67 105 -88
123 -122 176 -151 236 -36 72 -46 79 -43 29z m357 -957 c-7 -2 -19 -2 -25 0
-7 3 -2 5 12 5 14 0 19 -2 13 -5z"/>
<path d="M3591 1714 c0 -11 3 -14 6 -6 3 7 2 16 -1 19 -3 4 -6 -2 -5 -13z"/>
<path d="M0 1686 c0 -11 32 -12 178 -9 241 6 248 23 9 23 -151 0 -187 -3 -187
-14z"/>
<path d="M2843 1170 c-1 -11 2 -20 7 -20 4 0 7 7 6 15 -3 23 -12 26 -13 5z"/>
<path d="M3226 1161 c9 -18 13 -35 10 -39 -4 -3 -9 3 -12 15 -3 12 -16 24 -27
27 -21 5 -21 4 -3 -9 10 -8 15 -19 10 -26 -4 -8 -3 -10 4 -5 7 4 12 2 12 -3 0
-20 -31 -11 -40 12 -8 17 -9 18 -7 3 3 -28 33 -44 55 -30 25 16 26 47 2 69
-20 18 -20 18 -4 -14z"/>
<path d="M3440 1145 c-20 -25 -8 -50 25 -50 21 0 31 5 33 18 4 21 -14 47 -33
47 -7 0 -18 -7 -25 -15z"/>
<path d="M55 1111 c-3 -5 -1 -12 5 -16 5 -3 10 1 10 9 0 18 -6 21 -15 7z"/>
<path d="M3592 1080 c0 -14 2 -19 5 -12 2 6 2 18 0 25 -3 6 -5 1 -5 -13z"/>
<path d="M75 1080 c-3 -5 -1 -10 4 -10 6 0 11 5 11 10 0 6 -2 10 -4 10 -3 0
-8 -4 -11 -10z"/>
<path d="M3590 599 c0 -20 -4 -28 -11 -23 -8 5 -9 2 -1 -12 7 -12 7 -25 1 -36
-6 -12 -6 -18 0 -18 7 0 12 -73 14 -197 2 -193 3 -191 5 60 1 141 0 257 -3
257 -3 0 -5 -14 -5 -31z"/>
<path d="M1596 533 c-6 -14 -5 -15 5 -6 7 7 10 15 7 18 -3 3 -9 -2 -12 -12z"/>
<path d="M1570 475 c-8 -9 -22 -14 -32 -12 -10 3 -18 1 -18 -4 0 -15 47 -10
60 6 7 9 11 18 8 20 -3 3 -11 -2 -18 -10z"/>
<path d="M3464 168 c3 -13 6 -36 6 -51 0 -33 13 -28 33 11 14 30 9 42 -27 55
-15 6 -17 4 -12 -15z"/>
<path d="M1743 146 c-1 -23 4 -32 16 -33 37 -3 141 -36 141 -44 0 -9 77 -23
114 -20 15 1 34 -3 42 -9 14 -13 101 -4 110 11 3 5 -19 9 -48 9 -29 0 -78 7
-108 16 -30 9 -86 24 -123 34 -38 10 -85 30 -106 43 l-37 25 -1 -32z"/>
<path d="M93 115 c0 -22 2 -30 4 -17 2 12 2 30 0 40 -3 9 -5 -1 -4 -23z"/>
<path d="M90 20 c0 -5 5 -10 10 -10 6 0 10 5 10 10 0 6 -4 10 -10 10 -5 0 -10
-4 -10 -10z"/>
</g>
</svg>
